<svg width="22" height="22" viewBox="0 0 22 22" fill="none" xmlns="http://www.w3.org/2000/svg">
<path d="M21.1839 10.836L12.1276 1.78443L11.5206 1.1774C11.3823 1.04 11.1952 0.962891 11.0003 0.962891C10.8053 0.962891 10.6183 1.04 10.48 1.1774L0.816699 10.836C0.674975 10.9772 0.562968 11.1453 0.48729 11.3305C0.411611 11.5156 0.373795 11.7141 0.376074 11.9141C0.385449 12.7391 1.07217 13.3977 1.89717 13.3977H2.89326V21.0313H19.1073V13.3977H20.1245C20.5253 13.3977 20.9026 13.2407 21.1862 12.9571C21.3259 12.8179 21.4365 12.6524 21.5117 12.4701C21.587 12.2879 21.6253 12.0925 21.6245 11.8954C21.6245 11.4969 21.4675 11.1196 21.1839 10.836ZM12.3128 19.3438H9.68779V14.5626H12.3128V19.3438ZM17.4198 11.7102V19.3438H13.8128V14.0001C13.8128 13.4821 13.3933 13.0626 12.8753 13.0626H9.12529C8.60732 13.0626 8.18779 13.4821 8.18779 14.0001V19.3438H4.58076V11.7102H2.33076L11.0026 3.04537L11.544 3.58678L19.6722 11.7102H17.4198Z" fill="#262626"/>
</svg>
